<svg aria-hidden="true" focusable="false" style="display:none" xmlns="http://www.w3.org/2000/svg">

  <!-- -- NAVIGATION -- -->
  <symbol id="ic-beer" viewBox="0 0 24 24" fill="none" stroke="currentColor" stroke-width="2" stroke-linecap="round" stroke-linejoin="round">
    <path d="M7 4 h10 l-2 13 H9 Z"/>
    <path d="M9 17 L8.5 21 h7 L15 17"/>
    <path d="M17 7 h3 a2 2 0 0 1 0 5 h-3"/>
  </symbol>

  <symbol id="ic-stats" viewBox="0 0 24 24" fill="none" stroke="currentColor" stroke-width="2" stroke-linecap="round" stroke-linejoin="round">
    <rect x="3" y="12" width="4.5" height="9" rx="1"/>
    <rect x="9.75" y="7" width="4.5" height="14" rx="1"/>
    <rect x="16.5" y="3" width="4.5" height="18" rx="1"/>
  </symbol>

  <!-- -- ACTIONS -- -->
  <symbol id="ic-add" viewBox="0 0 24 24" fill="none" stroke="currentColor" stroke-width="2.5" stroke-linecap="round">
    <path d="M12 5 v14 M5 12 h14"/>
  </symbol>

  <symbol id="ic-check" viewBox="0 0 24 24" fill="none" stroke="currentColor" stroke-width="2.5" stroke-linecap="round" stroke-linejoin="round">
    <path d="M4 13 l5 5 11 -11"/>
  </symbol>

  <symbol id="ic-back" viewBox="0 0 24 24" fill="none" stroke="currentColor" stroke-width="2" stroke-linecap="round" stroke-linejoin="round">
    <path d="M20 12 H4 M10 6 l-6 6 6 6"/>
  </symbol>

  <symbol id="ic-edit" viewBox="0 0 24 24" fill="none" stroke="currentColor" stroke-width="2" stroke-linecap="round" stroke-linejoin="round">
    <path d="M16.5 3.5 a2.121 2.121 0 0 1 3 3 L7 19 l-4 1 1 -4 Z"/>
  </symbol>

  <symbol id="ic-delete" viewBox="0 0 24 24" fill="none" stroke="currentColor" stroke-width="2" stroke-linecap="round" stroke-linejoin="round">
    <path d="M3 6 h18 M8 6 V4 h8 v2 M5 6 l1 14 h12 l1 -14"/>
    <path d="M10 11 v5 M14 11 v5"/>
  </symbol>

  <symbol id="ic-save" viewBox="0 0 24 24" fill="none" stroke="currentColor" stroke-width="2" stroke-linecap="round" stroke-linejoin="round">
    <path d="M12 3 v13 M7 12 l5 5 5 -5"/>
    <path d="M4 17 v4 h16 v-4"/>
  </symbol>

  <symbol id="ic-import" viewBox="0 0 24 24" fill="none" stroke="currentColor" stroke-width="2" stroke-linecap="round" stroke-linejoin="round">
    <path d="M4 6.5 h6 l2 -2 h8 v14 H4 Z"/>
    <path d="M12 11 v6 M9 14.5 l3 3 3 -3"/>
  </symbol>

  <symbol id="ic-export" viewBox="0 0 24 24" fill="none" stroke="currentColor" stroke-width="2" stroke-linecap="round" stroke-linejoin="round">
    <path d="M4 17 v4 h16 v-4"/>
    <path d="M12 3 v13 M7 8 l5 -5 5 5"/>
  </symbol>

  <symbol id="ic-merge" viewBox="0 0 24 24" fill="none" stroke="currentColor" stroke-width="2" stroke-linecap="round" stroke-linejoin="round">
    <path d="M7 4 L12 11 17 4"/>
    <path d="M12 11 v9"/>
    <path d="M7 17 L12 20 17 17"/>
  </symbol>

  <symbol id="ic-warning" viewBox="0 0 24 24" fill="none" stroke="currentColor" stroke-width="2" stroke-linecap="round" stroke-linejoin="round">
    <path d="M12 2.5 L2 21.5 h20 Z"/>
    <path d="M12 9 v5"/>
    <circle cx="12" cy="17.5" r="0.6" fill="currentColor"/>
  </symbol>

  <symbol id="ic-refresh" viewBox="0 0 24 24" fill="none" stroke="currentColor" stroke-width="2" stroke-linecap="round" stroke-linejoin="round">
    <path d="M3 12 a9 9 0 1 0 3 -6.7 M3 12 V7 h5"/>
  </symbol>

  <!-- -- UI CONTROLS -- -->
  <symbol id="ic-search" viewBox="0 0 24 24" fill="none" stroke="currentColor" stroke-width="2" stroke-linecap="round">
    <circle cx="11" cy="11" r="7"/>
    <path d="M16.5 16.5 l4 4"/>
  </symbol>

  <symbol id="ic-close" viewBox="0 0 24 24" fill="none" stroke="currentColor" stroke-width="2.5" stroke-linecap="round">
    <path d="M6 6 l12 12 M18 6 l-12 12"/>
  </symbol>

  <symbol id="ic-sort" viewBox="0 0 24 24" fill="none" stroke="currentColor" stroke-width="2" stroke-linecap="round" stroke-linejoin="round">
    <path d="M9 4 v16 M5 8 l4 -4 4 4"/>
    <path d="M15 20 V4 M11 16 l4 4 4 -4"/>
  </symbol>

  <!-- -- SORT OPTIONS -- -->
  <symbol id="ic-sort-date" viewBox="0 0 24 24" fill="none" stroke="currentColor" stroke-width="2" stroke-linecap="round" stroke-linejoin="round">
    <rect x="3" y="4" width="18" height="18" rx="3"/>
    <path d="M3 10 h18 M8 2 v4 M16 2 v4"/>
  </symbol>

  <symbol id="ic-sort-rating" viewBox="0 0 24 24" fill="none" stroke="currentColor" stroke-width="1.8" stroke-linecap="round" stroke-linejoin="round">
    <polygon points="12,2 15.09,8.26 22,9.27 17,14.14 18.18,21.02 12,17.77 5.82,21.02 7,14.14 2,9.27 8.91,8.26"/>
  </symbol>

  <symbol id="ic-sort-alpha" viewBox="0 0 24 24" fill="none" stroke="currentColor" stroke-width="2" stroke-linecap="round" stroke-linejoin="round">
    <path d="M4 20 L8 4 L12 20 M5.5 14 h5"/>
    <path d="M17 4 v16"/>
    <path d="M14 4 h6 M14 12 h5 M14 20 h6"/>
  </symbol>

  <symbol id="ic-sort-brewery" viewBox="0 0 24 24" fill="none" stroke="currentColor" stroke-width="2" stroke-linecap="round" stroke-linejoin="round">
    <path d="M3 21 h18 M4 21 V9 l8 -7 8 7 v12"/>
    <rect x="9" y="13" width="6" height="8" rx="1"/>
    <path d="M9 10 h6"/>
  </symbol>

  <!-- -- FAVORITES & STATUS -- -->
  <symbol id="ic-heart-full" viewBox="0 0 24 24">
    <path d="M12 21 C10 19 3 14.8 3 9.2 C3 6.1 5.2 4 8 4 C9.8 4 11.2 4.9 12 6.3 C12.8 4.9 14.2 4 16 4 C18.8 4 21 6.1 21 9.2 C21 14.8 14 19 12 21 Z" fill="currentColor"/>
  </symbol>

  <symbol id="ic-heart-empty" viewBox="0 0 24 24" fill="none" stroke="currentColor" stroke-width="2" stroke-linecap="round" stroke-linejoin="round">
    <path d="M12 21 C10 19 3 14.8 3 9.2 C3 6.1 5.2 4 8 4 C9.8 4 11.2 4.9 12 6.3 C12.8 4.9 14.2 4 16 4 C18.8 4 21 6.1 21 9.2 C21 14.8 14 19 12 21 Z"/>
  </symbol>

  <symbol id="ic-tried" viewBox="0 0 24 24" fill="none" stroke="currentColor" stroke-width="2" stroke-linecap="round" stroke-linejoin="round">
    <circle cx="12" cy="12" r="9"/>
    <path d="M8 12.5 l3 3 5 -6"/>
  </symbol>

  <!-- -- STARS -- -->
  <symbol id="ic-star-full" viewBox="0 0 24 24">
    <polygon points="12,2 15.09,8.26 22,9.27 17,14.14 18.18,21.02 12,17.77 5.82,21.02 7,14.14 2,9.27 8.91,8.26" fill="currentColor"/>
  </symbol>

  <symbol id="ic-star-half" viewBox="0 0 24 24" fill="none" stroke="currentColor" stroke-width="1.5" stroke-linecap="round" stroke-linejoin="round">
    <polygon points="12,2 15.09,8.26 22,9.27 17,14.14 18.18,21.02 12,17.77 5.82,21.02 7,14.14 2,9.27 8.91,8.26"/>
    <polygon points="12,2 8.91,8.26 2,9.27 7,14.14 5.82,21.02 12,17.77" fill="currentColor" stroke="none"/>
  </symbol>

  <symbol id="ic-star-empty" viewBox="0 0 24 24" fill="none" stroke="currentColor" stroke-width="1.5" stroke-linecap="round" stroke-linejoin="round">
    <polygon points="12,2 15.09,8.26 22,9.27 17,14.14 18.18,21.02 12,17.77 5.82,21.02 7,14.14 2,9.27 8.91,8.26"/>
  </symbol>

  <!-- -- STATS -- -->
  <symbol id="ic-trophy" viewBox="0 0 24 24" fill="none" stroke="currentColor" stroke-width="2" stroke-linecap="round" stroke-linejoin="round">
    <path d="M8 2 h8 v9 a4 4 0 0 1 -8 0 Z"/>
    <path d="M8 6 H5 a3 3 0 0 0 3 3"/>
    <path d="M16 6 h3 a3 3 0 0 1 -3 3"/>
    <path d="M12 15 v4 M9 19 h6"/>
  </symbol>

  <symbol id="ic-palette" viewBox="0 0 24 24" fill="none" stroke="currentColor" stroke-width="2" stroke-linecap="round" stroke-linejoin="round">
    <path d="M12 2 a10 10 0 1 0 2 19.8 a3 3 0 0 1 -2 -2.8 a3 3 0 0 1 3 -3 h1 a3 3 0 0 0 3 -3 a10 10 0 0 0 -7 -11 Z"/>
    <circle cx="8" cy="10" r="1" fill="currentColor"/>
    <circle cx="10" cy="6.5" r="1" fill="currentColor"/>
    <circle cx="13.5" cy="5.5" r="1" fill="currentColor"/>
    <circle cx="16.5" cy="7.5" r="1" fill="currentColor"/>
  </symbol>

  <!-- -- BADGE ICONS -- -->
  <symbol id="ic-pin" viewBox="0 0 24 24" fill="none" stroke="currentColor" stroke-width="2" stroke-linecap="round" stroke-linejoin="round">
    <path d="M12 2 a6 6 0 0 1 6 6 c0 5 -6 14 -6 14 C12 22 6 13 6 8 a6 6 0 0 1 6 -6 Z"/>
    <circle cx="12" cy="8" r="2"/>
  </symbol>

  <symbol id="ic-note" viewBox="0 0 24 24" fill="none" stroke="currentColor" stroke-width="2" stroke-linecap="round" stroke-linejoin="round">
    <path d="M14 3 H6 a2 2 0 0 0 -2 2 v14 a2 2 0 0 0 2 2 h12 a2 2 0 0 0 2 -2 V9 Z"/>
    <path d="M14 3 v6 h6"/>
    <path d="M8 13 h8 M8 17 h6"/>
  </symbol>

  <symbol id="ic-hop" viewBox="0 0 24 24" fill="none" stroke="currentColor" stroke-width="2" stroke-linecap="round" stroke-linejoin="round">
    <ellipse cx="12" cy="9" rx="5" ry="7"/>
    <path d="M12 16 v6"/>
    <path d="M9 7 C7 7 6 5 7 3"/>
    <path d="M15 7 C17 7 18 5 17 3"/>
  </symbol>

  <symbol id="ic-scroll" viewBox="0 0 24 24" fill="none" stroke="currentColor" stroke-width="2" stroke-linecap="round" stroke-linejoin="round">
    <path d="M4 4 h14 a2 2 0 0 1 2 2 v13 a2 2 0 0 1 -2 2 H8 a2 2 0 0 1 -2 -2 V6"/>
    <path d="M4 4 a2 2 0 0 0 -2 2 a2 2 0 0 0 2 2 h2"/>
    <path d="M8 11 h8 M8 15 h5"/>
  </symbol>

  <symbol id="ic-offline" viewBox="0 0 24 24" fill="none" stroke="currentColor" stroke-width="2" stroke-linecap="round" stroke-linejoin="round">
    <path d="M2 8.5 C4.5 5.5 8 4 12 4 C16 4 19.5 5.5 22 8.5"/>
    <path d="M5 12 C7 10 9.4 9 12 9"/>
    <path d="M19 12 C18 11 16.5 10.2 15 9.7"/>
    <path d="M8.5 15.5 C9.5 14.6 10.7 14 12 14"/>
    <circle cx="12" cy="19" r="1.5" fill="currentColor"/>
    <path d="M3 3 l18 18"/>
  </symbol>

  <!-- -- CATEGORY ICONS -- -->
  <symbol id="ic-cat-all" viewBox="0 0 24 24" fill="none" stroke="currentColor" stroke-width="2" stroke-linecap="round" stroke-linejoin="round">
    <rect x="3" y="3" width="8" height="8" rx="2"/>
    <rect x="13" y="3" width="8" height="8" rx="2"/>
    <rect x="3" y="13" width="8" height="8" rx="2"/>
    <rect x="13" y="13" width="8" height="8" rx="2"/>
  </symbol>

  <symbol id="ic-cat-lager" viewBox="0 0 24 24" fill="none" stroke="currentColor" stroke-width="2" stroke-linecap="round" stroke-linejoin="round">
    <path d="M7 3 h10 l-2 13 H9 Z"/>
    <path d="M9 16 L8.5 21 h7 L15 16"/>
    <path d="M17 6.5 h3 a2 2 0 0 1 0 5 h-3"/>
  </symbol>

  <symbol id="ic-cat-ale" viewBox="0 0 24 24" fill="none" stroke="currentColor" stroke-width="2" stroke-linecap="round" stroke-linejoin="round">
    <path d="M5 4 h5 l-1.5 12 H6.5 Z"/>
    <path d="M6.5 16 L6 21 h5 L10.5 16"/>
    <path d="M14 4 h5 l-1.5 12 h-2 Z"/>
    <path d="M15.5 16 L15 21 h5 L19.5 16"/>
  </symbol>

  <symbol id="ic-cat-ipa" viewBox="0 0 24 24" fill="none" stroke="currentColor" stroke-width="2" stroke-linecap="round" stroke-linejoin="round">
    <ellipse cx="12" cy="9" rx="5" ry="7"/>
    <path d="M12 16 v6"/>
    <path d="M9 7 C7 7 6 5 7 3"/>
    <path d="M15 7 C17 7 18 5 17 3"/>
  </symbol>

  <symbol id="ic-cat-stout" viewBox="0 0 24 24" stroke="currentColor" stroke-width="2" stroke-linecap="round" stroke-linejoin="round">
    <path d="M7 4 h10 l-2 14 H9 Z" fill="currentColor" fill-opacity="0.35" stroke="currentColor"/>
    <path d="M9 18 L8.5 22 h7 L15 18" fill="none"/>
    <path d="M7 9 h10" fill="none"/>
  </symbol>

  <symbol id="ic-cat-weizen" viewBox="0 0 24 24" fill="none" stroke="currentColor" stroke-width="2" stroke-linecap="round" stroke-linejoin="round">
    <path d="M12 21 V7"/>
    <path d="M12 16 C12 16 8 13.5 8 10.5 C8 8.5 10 7.5 12 9.5 C14 7.5 16 8.5 16 10.5 C16 13.5 12 16 12 16 Z"/>
    <path d="M12 12.5 C12 12.5 9 11 9 9"/>
    <path d="M12 12.5 C12 12.5 15 11 15 9"/>
    <path d="M9 21 h6"/>
  </symbol>

  <symbol id="ic-cat-sour" viewBox="0 0 24 24" fill="none" stroke="currentColor" stroke-width="2" stroke-linecap="round" stroke-linejoin="round">
    <circle cx="12" cy="12" r="8"/>
    <path d="M12 4 v16 M4 12 h16"/>
    <path d="M12 4 C16 4 18 8 18 12 C18 16 16 20 12 20"/>
    <path d="M12 4 C8 4 6 8 6 12 C6 16 8 20 12 20"/>
  </symbol>

  <symbol id="ic-cat-trappist" viewBox="0 0 24 24" fill="none" stroke="currentColor" stroke-width="2" stroke-linecap="round" stroke-linejoin="round">
    <path d="M12 3 v18 M7 9 h10"/>
    <path d="M8 3 C8 3 5 5.5 5 10.5 C5 15.5 8 18 12 18 C16 18 19 15.5 19 10.5 C19 5.5 16 3 12 3 Z"/>
  </symbol>

  <symbol id="ic-cat-pilsner" viewBox="0 0 24 24" fill="none" stroke="currentColor" stroke-width="2" stroke-linecap="round" stroke-linejoin="round">
    <path d="M9.5 3 h5 l-1.5 17 h-2 Z"/>
    <path d="M11 20 L10.5 22 h3 L13 20"/>
  </symbol>

  <symbol id="ic-cat-saison" viewBox="0 0 24 24" fill="none" stroke="currentColor" stroke-width="2" stroke-linecap="round" stroke-linejoin="round">
    <circle cx="12" cy="12" r="4"/>
    <path d="M12 2 v2 M12 20 v2 M2 12 h2 M20 12 h2"/>
    <path d="M5.6 5.6 L7 7 M17 17 l1.4 1.4 M18.4 5.6 L17 7 M7 17 l-1.4 1.4"/>
  </symbol>

  <symbol id="ic-cat-barleywine" viewBox="0 0 24 24" fill="none" stroke="currentColor" stroke-width="2" stroke-linecap="round" stroke-linejoin="round">
    <path d="M7 7 h10 v11 a2 2 0 0 1 -2 2 H9 a2 2 0 0 1 -2 -2 Z"/>
    <path d="M7 12 h10"/>
    <path d="M9 7 V5 a1 1 0 0 1 1 -1 h4 a1 1 0 0 1 1 1 v2"/>
  </symbol>

  <symbol id="ic-cat-radler" viewBox="0 0 24 24" fill="none" stroke="currentColor" stroke-width="2" stroke-linecap="round" stroke-linejoin="round">
    <circle cx="12" cy="12" r="8"/>
    <path d="M12 4 v16 M4 12 h16"/>
    <path d="M6.3 6.3 l11.4 11.4 M17.7 6.3 L6.3 17.7"/>
  </symbol>

  <symbol id="ic-cat-other" viewBox="0 0 24 24" fill="none" stroke="currentColor" stroke-width="2" stroke-linecap="round" stroke-linejoin="round">
    <circle cx="12" cy="12" r="9"/>
    <path d="M9 9.5 a3 3 0 0 1 6 0 c0 2 -3 3.5 -3 5.5"/>
    <circle cx="12" cy="18.5" r="0.8" fill="currentColor"/>
  </symbol>

</svg>
